<?xml version="1.0" encoding="UTF-8" standalone="no"?>
<!-- Generator: Adobe Illustrator 18.0.0, SVG Export Plug-In . SVG Version: 6.00 Build 0)  -->

<svg
   xmlns:dc="http://purl.org/dc/elements/1.1/"
   xmlns:cc="http://creativecommons.org/ns#"
   xmlns:rdf="http://www.w3.org/1999/02/22-rdf-syntax-ns#"
   xmlns:svg="http://www.w3.org/2000/svg"
   xmlns="http://www.w3.org/2000/svg"
   xmlns:sodipodi="http://sodipodi.sourceforge.net/DTD/sodipodi-0.dtd"
   xmlns:inkscape="http://www.inkscape.org/namespaces/inkscape"
   version="1.1"
   id="Calque_1"
   x="0px"
   y="0px"
   viewBox="0 0 639.99999 480.00001"
   xml:space="preserve"
   sodipodi:docname="logo-cnpa.svg"
   width="640"
   height="480"
   inkscape:version="0.92.1 r15371"><metadata
     id="metadata3755"><rdf:RDF><cc:Work
         rdf:about=""><dc:format>image/svg+xml</dc:format><dc:type
           rdf:resource="http://purl.org/dc/dcmitype/StillImage" /><dc:title></dc:title></cc:Work></rdf:RDF></metadata><defs
     id="defs3753" /><sodipodi:namedview
     pagecolor="#ffffff"
     bordercolor="#666666"
     borderopacity="1"
     objecttolerance="10"
     gridtolerance="10"
     guidetolerance="10"
     inkscape:pageopacity="0"
     inkscape:pageshadow="2"
     inkscape:window-width="3840"
     inkscape:window-height="2035"
     id="namedview3751"
     showgrid="false"
     inkscape:measure-start="0,0"
     inkscape:measure-end="0,0"
     inkscape:zoom="3.193623"
     inkscape:cx="182.14096"
     inkscape:cy="251.96401"
     inkscape:window-x="-13"
     inkscape:window-y="-13"
     inkscape:window-maximized="1"
     inkscape:current-layer="Calque_1" /><g
     id="g3748"
     transform="matrix(0.93239582,0,0,0.94444665,99.186621,-17.912279)"><path
       style="fill:#1f3f6b"
       d="m 68.453,193.885 c 0.234,0.529 0.754,0.845 1.299,0.845 0.19,0 0.387,-0.04 0.573,-0.122 0.716,-0.317 1.038,-1.155 0.722,-1.872 l -9.749,-22.02 10e-4,0.001 20.958,20.957 0.159,1.987 72.332,72.279 h 4.015 l -75.106,-74.987 1.664,-11.711 -0.02,-0.008 c 0.025,-0.567 -0.285,-1.119 -0.835,-1.362 L 59.09,166.634 c -0.539,-0.236 -1.162,-0.12 -1.578,0.294 -0.414,0.414 -0.531,1.041 -0.293,1.578 z"
       id="path3680"
       inkscape:connector-curvature="0" /><path
       style="fill:#1f3f6b"
       d="m 225.15,269.841 c 12.617,5.095 13.178,9.239 13.188,9.368 0.013,0.468 0.432,0.844 0.944,0.844 0.51,0 0.929,-0.375 0.945,-0.844 0.011,-0.129 0.57,-4.272 13.188,-9.368 13.836,-5.586 26.257,-11.198 26.257,-18.427 0,-8.358 -33.645,-8.781 -40.39,-8.781 -6.746,0 -40.393,0.423 -40.393,8.781 0.002,7.228 12.423,12.841 26.261,18.427 z m 14.477,2.056 c 0.41,-5.404 -0.421,-10.88 0.625,-16.238 0.66,-3.366 2.188,-6.98 5.132,-8.962 2.161,-1.454 4.829,-1.866 7.387,-1.849 4.391,0.031 8.812,0.878 13.115,1.678 3.022,0.561 6.254,0.951 9.11,2.132 1.178,0.487 2.789,1.248 2.789,2.756 0,6.179 -12.414,11.708 -25.129,16.841 -8.524,3.44 -11.977,6.57 -13.373,8.6 0.596,-0.869 0.261,-3.864 0.344,-4.958 z"
       id="path3682"
       inkscape:connector-curvature="0" /><path
       style="fill:#1f3f6b"
       d="m 200.756,239.445 c 0.066,0 0.137,-0.007 0.202,-0.022 l 14.424,-2.908 c 16.781,-4.083 31.442,-11.362 42.437,-21.064 9.66,-8.53 16.33,-18.84 18.773,-29.035 3.197,-13.324 -4.592,-30.842 -13.606,-51.12 -4.153,-9.343 -8.447,-19.003 -12.091,-29.151 -11.423,-31.796 -9.123,-84.792 -9.099,-85.322 0.023,-0.475 -0.38,-0.878 -0.895,-0.904 -0.017,0 -0.033,0 -0.047,0 -0.499,0 -0.915,0.356 -0.942,0.816 -4.898,76.497 -0.415,179.701 0.16,187.268 -5.701,8.89 -39.494,29.642 -39.84,29.852 -0.377,0.233 -0.521,0.678 -0.344,1.062 0.153,0.324 0.497,0.528 0.868,0.528 z"
       id="path3684"
       inkscape:connector-curvature="0" /><path
       style="fill:#1f3f6b"
       d="m 250.523,448.784 -0.384,-0.21 c 0.176,0.104 0.296,0.168 0.384,0.21 z"
       id="path3686"
       inkscape:connector-curvature="0" /><path
       style="fill:#1f3f6b"
       d="m 253.1,450.602 0.103,-0.008 c -0.138,-0.058 -0.205,-0.072 -0.103,0.008 z"
       id="path3688"
       inkscape:connector-curvature="0" /><path
       style="fill:#1f3f6b"
       d="m 275.808,459.806 c 0.194,0.022 0.471,0.036 0.864,0.042 z"
       id="path3690"
       inkscape:connector-curvature="0" /><path
       style="fill:#1f3f6b"
       d="m 235.983,439.636 -0.501,-0.083 c 0.681,0.351 0.417,0.125 0.501,0.083 z"
       id="path3692"
       inkscape:connector-curvature="0" /><path
       style="fill:#1f3f6b"
       d="m 216.24,416.659 0.149,0.019 c 0.015,-0.021 -0.051,-0.023 -0.149,-0.019 z"
       id="path3694"
       inkscape:connector-curvature="0" /><path
       style="fill:#1f3f6b"
       d="m 258.375,434.777 0.033,0.006 c -0.115,-0.045 -0.093,-0.037 -0.033,-0.006 z"
       id="path3696"
       inkscape:connector-curvature="0" /><path
       style="fill:#1f3f6b"
       d="m 208.5,441.382 c -0.018,-0.024 -0.033,-0.048 -0.053,-0.079 -0.348,-0.284 -0.207,-0.147 0.053,0.079 z"
       id="path3698"
       inkscape:connector-curvature="0" /><polygon
       style="fill:#1f3f6b"
       points="278.787,447.582 278.787,447.565 278.75,447.535 "
       id="polygon3700" /><path
       style="fill:#1f3f6b"
       d="m 279.344,448.371 c 0.271,0.058 0.542,0.118 0.542,0.118 -0.582,-0.273 -0.803,-0.55 -1.099,-0.906 l 0.015,0.651 c 0,-10e-4 0.269,0.067 0.542,0.137 z"
       id="path3702"
       inkscape:connector-curvature="0" /><path
       style="fill:#1f3f6b"
       d="m 217.807,442.957 c 0.078,-0.024 0.152,-0.05 0.207,-0.074 -0.075,0.029 -0.139,0.049 -0.207,0.074 z"
       id="path3704"
       inkscape:connector-curvature="0" /><path
       style="fill:#1f3f6b"
       d="m 285.74,453.146 c 0.23,0.18 0.321,0.33 0.451,0.367 -0.545,-0.482 -1.853,-1.416 -1.482,-1.294 l 0.238,0.16 c -0.759,-0.583 -2.062,-1.199 -2.979,-1.816 -0.973,-0.638 -1.759,-1.24 -1.961,-1.212 0.014,-0.042 0.418,-0.12 0.538,-0.095 0,-10e-4 -0.765,-0.323 -1.525,-0.708 -0.194,-0.1 -0.387,-0.202 -0.568,-0.301 -0.237,-0.245 -0.472,-0.493 -0.701,-0.75 0.122,-0.278 0.23,-0.647 0.999,0.038 -0.264,-0.334 -0.588,-0.74 -1.211,-1.372 0.142,0.25 0.175,0.792 -0.105,0.505 -0.445,-1.036 -0.374,-0.685 -0.905,-1.916 0.177,0.392 -0.415,0.215 -0.759,-0.392 0.104,0.064 0.314,-0.242 0.479,-0.054 0,0 -0.282,-0.311 -0.565,-0.639 -0.267,-0.332 -0.518,-0.69 -0.518,-0.69 0.245,0.36 0.316,-0.058 0.336,-0.428 -0.003,0.09 -0.139,-0.237 -0.207,-0.635 -0.018,-0.1 -0.033,-0.204 -0.053,-0.308 l -0.028,-0.154 -0.017,-0.244 c -0.027,-0.313 -0.053,-0.578 -0.069,-0.752 l -0.008,1.044 c -0.044,-0.643 -0.067,-1.184 -0.282,-1.474 -0.195,-0.318 -0.558,-0.435 -0.864,-0.379 -0.638,0.107 -1.153,0.499 -2.009,0.915 0.174,-0.175 0.307,-0.73 -0.63,-0.3 -0.179,0.21 -0.532,0.729 -1.044,1.31 -0.634,0.358 -1.289,0.724 -1.94,1.054 0.718,-0.667 1.513,-1.425 2.075,-1.918 -0.689,0.283 -0.25,-0.015 -1.202,0.532 -0.392,0.093 0.438,-0.433 0.721,-0.604 0,0 -0.566,0.298 -1.132,0.595 -0.56,0.274 -1.118,0.547 -1.118,0.547 0.204,0.204 -1.586,0.971 -1.444,1.082 0,-0.001 0.596,-0.255 1.175,-0.604 0.579,-0.338 1.15,-0.72 1.15,-0.72 0.213,0.115 -1.062,1.474 -2.807,1.848 -0.436,-0.01 0.227,-0.474 0.16,-0.553 -0.089,0.071 -0.454,0.195 -0.785,0.223 -0.336,0.023 -0.578,-0.047 -0.619,-0.127 0.003,0.061 0.498,0.011 0.509,-0.003 -0.523,-0.103 -1.237,-0.147 -1.492,-1.228 -0.127,-0.358 -0.048,-1.169 -0.192,-1.209 -0.066,0.405 -0.366,0.687 -0.667,0.776 -0.126,-0.438 -0.227,-0.903 -0.319,-1.38 l 0.105,0.042 -0.055,-0.272 -0.089,0.027 c -0.092,-0.485 -0.184,-0.972 -0.29,-1.441 0.168,-0.189 0.674,1.016 0.726,0.474 -0.069,-0.012 -0.229,-0.381 -0.288,-0.534 -0.056,-0.459 0.248,0.142 -0.039,-0.833 -0.233,-0.097 -0.815,-1.989 -0.353,-0.397 -0.225,-0.456 -0.326,-0.705 -0.496,-0.966 -0.149,-0.251 -0.329,-0.585 -0.908,-0.915 0.136,0.199 -0.181,0.074 -0.618,0.087 -0.107,-0.002 -0.234,-0.017 -0.354,-0.027 -0.421,-0.146 -0.853,-0.256 -1.297,-0.334 -0.009,-0.005 -0.022,-0.011 -0.03,-0.016 -0.479,-0.065 -0.903,-0.123 -1.299,-0.177 -0.396,-0.029 -0.765,-0.015 -1.131,-0.026 -0.734,-0.042 -1.44,0.06 -2.341,0.161 -0.178,-0.047 -1.044,0.054 -0.698,-0.119 -0.25,0.088 -0.471,0.211 -1.017,0.318 -1.106,-0.009 1.219,-0.256 0.362,-0.355 -0.05,0.143 -1.385,0.461 -2.138,0.714 0.281,0.162 1.794,-0.335 2.567,-0.553 0.017,0.098 -0.13,0.229 -0.389,0.377 -1.936,0.368 -3.864,0.843 -5.648,1.066 -0.555,0.033 -1.486,0.126 -2.538,0.218 -1.338,0.102 -2.92,0.244 -3.92,0.004 -0.267,0.038 -0.595,-0.194 -0.704,-0.234 -1.055,-0.899 -3.083,-3.238 -2.466,-3.293 1.265,-0.111 2.246,-0.353 3.001,-0.672 -0.013,0.032 -0.008,0.058 0.03,0.074 0.016,0.025 0.733,-0.439 0.868,-0.565 0.006,-0.005 0.013,-0.011 0.019,-0.016 -0.003,0.052 -0.212,0.284 0.03,0.14 -0.011,-0.054 0.076,-0.165 0.198,-0.315 0.471,-0.411 0.71,-0.878 0.764,-1.358 0.005,-0.028 0.017,-0.054 0.021,-0.082 -0.002,-0.015 -0.005,-0.021 -0.009,-0.036 0.021,-0.442 -0.122,-0.891 -0.402,-1.314 -0.018,-0.034 -0.019,-0.042 -0.046,-0.09 -0.054,-0.053 -0.1,-0.117 -0.149,-0.179 -0.211,-0.254 -0.469,-0.497 -0.773,-0.716 -2.926,-2.104 -7.336,0.452 -9.85,2.056 -4.294,2.744 -9.641,5.03 -14.322,1.704 -1.182,-0.841 -2.201,-3.438 0.174,-4.505 0.864,-0.39 1.186,-0.7 1.934,-0.388 0.104,0.043 0.206,0.042 0.308,0.014 0.407,0.043 0.812,-0.25 0.864,-0.068 0.377,-0.554 0.757,-1.138 1.299,-0.936 0.134,0.049 0.226,0.112 0.348,0.186 0.16,0.108 0.315,0.211 0.471,0.316 0.166,0.114 0.355,0.238 0.565,0.352 0.269,0.145 0.562,0.264 0.85,0.282 0.253,0.077 0.147,0.086 -0.002,0.092 -0.142,-0.014 -0.327,-0.041 -0.191,0.042 0.458,0.053 1.056,0.021 1.612,-0.571 0.199,-0.232 0.38,-0.392 0.568,-0.628 0,0 -0.041,0.131 -0.045,0.127 0.46,-0.666 0.731,-1.347 0.812,-2.017 0.044,-0.664 -0.015,-1.293 -0.23,-1.862 -0.407,-1.145 -1.145,-2.191 -2.51,-3.259 l 0.104,0.286 c -0.531,-0.433 -0.687,-0.559 -0.964,-0.787 -0.438,-0.091 0.021,0.151 0.455,0.446 0.429,0.305 0.842,0.637 0.45,0.518 -0.263,-0.427 -1.349,-1.207 -2.559,-1.564 -1.178,-0.438 -2.363,-0.561 -2.672,-0.799 -1.114,-0.13 0.305,0.191 -0.798,0.13 l -0.287,-0.11 -0.283,0.133 c -0.72,-0.038 -1.092,-0.159 -1.122,-0.235 0.177,-0.011 0.504,-0.032 0.692,-0.044 -0.958,-0.13 -2.643,0.226 -2.951,0.258 0,0 0.261,-0.027 0.521,-0.054 0.264,-0.01 0.529,-0.018 0.529,-0.018 -1.482,0.202 -3.089,0.53 -4.654,0.932 -0.776,0.21 -1.555,0.414 -2.285,0.654 -0.366,0.119 -0.727,0.237 -1.081,0.353 -0.382,0.185 -0.801,0.3 -1.119,0.582 l 0.249,-0.069 c -0.249,0.188 -0.46,0.346 -0.641,0.483 -0.154,0.17 -0.285,0.313 -0.4,0.439 -0.244,0.246 -0.342,0.482 -0.502,0.688 -0.25,0.438 -0.549,0.956 -0.638,2.214 l -0.011,-0.093 c 0.014,0.511 0.059,1.164 0.094,1.824 -0.146,-0.608 -0.086,1.166 -0.261,0.372 0.466,2.357 0.271,1.167 0.84,2.638 l -0.054,0.374 c 0.229,0.487 0.298,0.517 0.605,1.647 -0.335,-0.906 -0.018,0.773 -0.419,-0.237 0.311,2.438 1.087,3.464 0.959,4.673 0.615,1.017 -0.296,-2.129 -0.069,-1.527 0,-0.543 0.463,0.849 0.618,1.606 0.204,0.76 -0.169,1.426 0.542,3.347 -0.068,-0.191 -0.102,-0.194 -0.171,-0.385 0.191,0.753 0.64,1.353 0.973,2.26 0.442,0.362 0.646,1.084 0.978,1.038 0,0 -0.302,-0.37 -0.555,-0.772 -0.263,-0.395 -0.481,-0.812 -0.481,-0.814 0.573,0.918 1.282,1.64 2.523,2.88 -0.129,-0.05 -0.617,-0.313 -0.88,-0.574 0.305,0.445 0.768,0.675 1.193,1.031 -0.146,0.087 -0.682,-0.24 -1.205,-0.759 -0.531,-0.516 -1.014,-1.212 -1.402,-1.666 0.14,0.593 1.513,1.689 0.885,1.419 0.435,0.21 0.797,0.588 1.285,0.984 0.499,0.37 1.133,0.765 1.895,0.813 l -0.145,0.136 c 0.241,0.046 0.735,0.101 1.162,0.141 0,0 -0.814,0.103 -0.82,0.074 1.227,0.105 2.344,0.402 3.457,0.135 -2.354,0.248 -0.542,-0.127 -1.537,-0.19 1.424,-0.172 1.811,-0.194 2.283,-0.151 0.434,0.02 0.957,0.069 2.256,-0.393 -0.478,0.146 -1.249,0.276 -0.725,0.048 0.577,-0.145 1.331,-0.346 1.696,-0.396 1.878,-0.784 -0.349,-0.043 0.415,-0.46 0.715,-0.065 0.885,-0.453 1.66,-0.861 l 0.075,0.155 c 2.117,-0.802 0.41,-0.582 2.316,-1.243 l -0.687,0.546 0.937,-0.457 -0.125,0.262 c 1,-0.547 1.358,-0.663 2.419,-0.978 -0.283,-0.018 0.027,-0.359 0.964,-0.662 0.67,-0.097 -0.308,0.263 1.008,-0.162 -0.27,0.194 -0.553,0.421 -1.174,0.443 -0.042,0.068 -0.258,0.202 -0.302,0.276 0.717,-0.107 1.709,-0.535 2.189,-0.617 -0.184,0.038 -0.404,0.071 -0.523,0.082 0,0 1.864,-0.686 1.873,-0.628 0.314,0.026 0.08,0.108 -0.15,0.186 0.386,-0.065 0.646,-0.176 1.222,-0.263 -0.138,0.156 -0.097,0.297 -0.88,0.46 0,0 0.446,-0.095 0.892,-0.189 0.446,-0.037 0.895,-0.075 0.895,-0.075 0.125,0.04 0.9,0.195 0.665,0.24 0.941,0.217 2.36,0.111 3.574,0.965 0.074,0.009 0.216,0.051 0.488,0.169 1.172,0.585 2.071,1.361 3.504,2.052 l 0.618,0.691 c 1.066,0.658 -0.842,-0.953 0.937,0.144 1.266,0.766 0.337,0.486 0.725,0.836 0.671,0.312 1.89,0.812 2.932,1.737 -0.404,-0.21 -0.684,-0.439 -1.05,-0.656 l 0.804,0.693 c -1.186,-0.507 -1.914,-1.081 -1.193,-0.374 0.406,-0.316 3.43,2.204 3.784,1.878 l 0.507,0.464 c -0.158,-0.112 -0.199,-0.105 -0.357,-0.218 0.967,0.931 1.006,0.258 2.38,1.268 0.471,0.361 0.773,0.651 0.406,0.472 l 1.165,0.641 c 0.268,0.19 0.203,0.219 -0.014,0.087 0.152,0.096 0.439,0.282 0.729,0.487 0.41,0.296 0.823,0.591 0.823,0.591 l -0.023,0.003 c 0.277,0.111 0.87,0.41 1.155,0.561 0.368,0.364 -0.238,-0.114 -0.168,0.014 l 0.967,0.579 c 0.29,0.374 -0.524,-0.086 -1.133,-0.564 0.55,1.014 0.816,0.46 2.453,2.039 l -0.88,-0.585 c 0.379,0.626 1.1,1.042 1.953,1.894 -0.172,-0.24 -1.657,-1.777 -0.609,-1.143 0.252,0.233 0.601,0.518 1.186,0.835 -0.1,0.138 0.46,0.493 1.134,0.967 l -0.175,0.153 c 0.759,0.476 0.781,0.318 1.277,0.52 0.827,0.548 0.905,0.819 1.042,1.06 1.395,0.801 -0.834,-0.773 0.855,0.096 0.561,0.357 1.058,0.63 1.626,0.835 0.562,0.213 1.15,0.452 1.929,0.634 0.85,0.385 -0.199,0.075 0.094,0.248 l 0.837,0.107 c 0.189,0.072 0.11,0.103 0.071,0.119 0.685,0.135 0.123,-0.194 1.187,0.029 0.321,-0.143 2.097,0.891 3.493,0.728 0.325,0.091 -0.174,0.125 -0.082,0.22 1.87,-0.022 1.603,0.003 3.107,-0.245 0,0 0.321,0.039 0.643,0.076 0.322,0.017 0.643,0.033 0.643,0.033 -0.948,-0.106 0.247,-0.389 1.263,-0.623 -0.052,-0.009 -0.094,-0.017 -0.145,-0.026 0.102,-0.009 0.205,-0.009 0.308,-0.021 -0.058,0.015 -0.105,0.034 -0.163,0.046 l 0.191,0.034 c 0.084,-0.042 0.154,-0.077 0.23,-0.115 0.271,-0.03 0.54,-0.076 0.809,-0.114 0.01,0.068 -0.186,0.174 -0.429,0.285 l -0.61,-0.056 c -0.393,0.164 -0.767,0.343 -0.673,0.469 0.108,-0.033 0.315,-0.07 0.546,-0.099 -0.105,0.046 -0.172,0.083 -0.119,0.103 0.059,0.015 0.229,-0.031 0.496,-0.133 l 0.41,0.198 0.08,-0.112 c 0,0 0.552,-0.039 1.105,-0.076 0.557,-0.029 1.103,-0.131 1.103,-0.131 0.757,-0.294 1.435,-0.593 2.208,-0.958 0.772,-0.367 1.682,-0.731 2.727,-1.393 -0.449,0.458 0.031,0.328 0.117,0.532 -0.725,0.177 -1.812,0.925 -3.093,1.202 0.659,-0.152 0.546,-0.014 0.388,0.066 0,0 0.548,-0.201 1.098,-0.443 0.549,-0.233 1.076,-0.541 1.076,-0.541 0.025,0.183 0.535,-0.079 1.14,-0.422 -0.327,-0.023 0.083,-0.261 0.519,-0.81 0.119,-0.118 0.231,-0.277 0.329,-0.466 0.114,-0.165 0.178,-0.38 0.226,-0.597 0.096,-0.434 -0.025,-0.841 -0.152,-1.098 0.044,-0.059 0.118,-0.037 0.232,0.202 0.125,0.202 0.241,0.799 -0.136,1.497 0.561,-0.742 0.264,-1.539 -0.047,-1.899 -0.326,-0.411 -0.697,-0.632 -1.105,-1.156 z m -29.742,-0.41 c 0.391,0.049 0.545,0.283 0.92,0.633 -0.263,-0.152 -0.807,-0.422 -0.92,-0.633 z m 22.428,6.565 c 0.282,-0.053 0.604,-0.093 0.967,-0.099 -0.213,0.087 -0.566,0.11 -0.967,0.099 z"
       id="path3706"
       inkscape:connector-curvature="0" /><path
       style="fill:#1f3f6b"
       d="m 251.674,449.512 c -0.063,-0.04 -0.111,-0.071 -0.111,-0.069 0.044,0.031 0.076,0.047 0.111,0.069 z"
       id="path3708"
       inkscape:connector-curvature="0" /><path
       style="fill:#1f3f6b"
       d="m 276.727,459.77 c -0.088,-0.024 -0.112,-0.053 -0.138,-0.085 -0.116,0.038 -0.116,0.071 0.138,0.085 z"
       id="path3710"
       inkscape:connector-curvature="0" /><path
       style="fill:#1f3f6b"
       d="m 236.077,439.652 -0.038,-0.022 c -0.028,-10e-4 -0.045,10e-4 -0.056,0.007 z"
       id="path3712"
       inkscape:connector-curvature="0" /><path
       style="fill:#1f3f6b"
       d="m 262.726,438.136 c 0.038,0.295 0.041,0.464 0.033,0.576 0.044,0.009 0.05,-0.13 -0.033,-0.576 z"
       id="path3714"
       inkscape:connector-curvature="0" /><path
       style="fill:#1f3f6b"
       d="m 237.231,433.657 c 0.053,0.098 0.1,0.172 0.105,0.169 0,0 -0.049,-0.076 -0.105,-0.169 z"
       id="path3716"
       inkscape:connector-curvature="0" /><path
       style="fill:#1f3f6b"
       d="m 236.99,433.234 c -0.015,0.007 0.132,0.251 0.24,0.424 -0.134,-0.241 -0.334,-0.66 -0.228,-0.677 -0.043,-0.003 -0.026,0.256 -0.012,0.253 z"
       id="path3718"
       inkscape:connector-curvature="0" /><path
       style="fill:#1f3f6b"
       d="m 246.622,435.771 -0.496,0.151 c 0.3,0.005 0.321,0.039 0.491,0.072 z"
       id="path3720"
       inkscape:connector-curvature="0" /><path
       style="fill:#1f3f6b"
       d="m 249.224,435.358 c 0.092,-0.08 1.508,-0.481 0.163,-0.197 -0.096,0.08 -1.149,0.34 -0.163,0.197 z"
       id="path3722"
       inkscape:connector-curvature="0" /><path
       style="fill:#1f3f6b"
       d="m 273.986,439.059 c -0.972,-0.048 -1.135,0.212 -1.204,0.258 -0.066,0.083 -0.216,0.167 -0.861,0.413 -0.106,0.104 0.068,0.029 0.394,-0.086 0.273,-0.108 0.661,-0.207 0.435,-0.091 1.096,-0.501 1.667,-0.156 1.236,-0.494 z"
       id="path3724"
       inkscape:connector-curvature="0" /><path
       style="fill:#1f3f6b"
       d="m 272.749,439.552 c -0.097,0.047 -0.236,0.117 -0.479,0.255 0.155,-0.093 0.296,-0.179 0.479,-0.255 z"
       id="path3726"
       inkscape:connector-curvature="0" /><path
       style="fill:#1f3f6b"
       d="m 258.043,454.626 0.465,0.496 0.086,-0.006 c -0.071,-0.125 -0.233,-0.247 -0.551,-0.49 z"
       id="path3728"
       inkscape:connector-curvature="0" /><polygon
       style="fill:#1f3f6b"
       points="249.691,448.502 249.512,448.128 249.537,448.391 "
       id="polygon3730" /><path
       style="fill:#1f3f6b"
       d="m 241.541,443.354 c 0.324,0.208 0.703,0.455 1.028,0.664 -0.714,-0.441 -0.967,-0.938 -1.028,-0.664 z"
       id="path3732"
       inkscape:connector-curvature="0" /><path
       style="fill:#1f3f6b"
       d="m 146.109,320.227 c 7.3,0 13.556,2.574 18.77,7.715 l 11.551,-11.575 c -8.439,-8.359 -18.567,-12.54 -30.384,-12.54 -11.897,0 -22.045,4.203 -30.446,12.601 -8.4,8.4 -12.598,18.55 -12.598,30.445 0,11.817 4.197,21.927 12.598,30.325 8.401,8.4 18.549,12.6 30.446,12.6 11.816,0 21.945,-4.178 30.384,-12.54 l -11.551,-11.576 c -5.214,5.145 -11.47,7.716 -18.77,7.716 -7.381,0 -13.676,-2.599 -18.89,-7.801 -5.214,-5.199 -7.822,-11.441 -7.822,-18.725 0,-7.362 2.608,-13.645 7.822,-18.845 5.215,-5.199 11.51,-7.8 18.89,-7.8 z"
       id="path3734"
       inkscape:connector-curvature="0" /><polygon
       style="fill:#1f3f6b"
       points="203.57,388.111 203.57,349.661 238.535,390.541 238.535,305.516 222.14,305.516 222.14,344.103 187.171,303.226 187.171,388.111 "
       id="polygon3736" /><path
       style="fill:#1f3f6b"
       d="m 303.896,314.5 c -5.989,-5.987 -13.202,-8.983 -21.643,-8.983 h -20.859 v 82.594 h 16.398 V 366.77 h 4.461 c 8.441,0 15.654,-2.995 21.643,-8.984 5.987,-5.987 8.982,-13.203 8.982,-21.642 0,-8.443 -2.995,-15.656 -8.982,-21.644 z m -11.577,31.71 c -2.772,2.773 -6.128,4.16 -10.067,4.16 h -4.461 v -28.457 h 4.461 c 3.939,0 7.295,1.388 10.067,4.161 2.773,2.774 4.163,6.13 4.163,10.069 0,3.938 -1.389,7.294 -4.163,10.067 z"
       id="path3738"
       inkscape:connector-curvature="0" /><path
       style="fill:#1f3f6b"
       d="m 310.99,388.111 h 17.574 l 2.647,-6.874 h 25.156 l 2.529,6.874 h 17.566 l -32.676,-85.128 z m 32.834,-39.946 8.16,21.255 h -16.48 z"
       id="path3740"
       inkscape:connector-curvature="0" /><path
       style="fill:#1f3f6b"
       d="m 418.25,525.207 -11.235,-25.378 c -0.317,-0.717 -1.153,-1.042 -1.872,-0.723 -0.716,0.317 -1.038,1.155 -0.721,1.871 l 9.748,22.02 h -0.002 l -20.958,-20.957 -0.159,-1.987 -72.33,-72.278 h -4.016 l 75.105,74.987 -1.664,11.711 0.022,0.008 c -0.026,0.568 0.284,1.119 0.834,1.363 l 25.376,11.234 c 0.186,0.081 0.381,0.122 0.574,0.122 0.369,0 0.731,-0.144 1.003,-0.416 0.415,-0.415 0.533,-1.042 0.295,-1.577 z"
       id="path3742"
       inkscape:connector-curvature="0" /><path
       style="fill:#1f3f6b"
       d="m 393.05,193.66 0.16,-1.988 20.957,-20.955 0.001,-0.001 -9.748,22.02 c -0.318,0.716 0.006,1.555 0.722,1.872 0.187,0.082 0.383,0.122 0.573,0.122 0.545,0 1.064,-0.315 1.299,-0.845 l 11.233,-25.378 c 0.239,-0.536 0.122,-1.164 -0.293,-1.578 -0.414,-0.414 -1.04,-0.531 -1.577,-0.294 l -25.376,11.235 c -0.55,0.244 -0.86,0.794 -0.835,1.361 l -0.021,0.008 1.665,11.713 -75.107,74.986 h 4.015 z"
       id="path3744"
       inkscape:connector-curvature="0" /><path
       style="fill:#1f3f6b"
       d="m 154.748,427.773 -72.332,72.28 -0.16,1.987 -20.957,20.957 h -10e-4 l 9.749,-22.02 c 0.316,-0.716 -0.006,-1.554 -0.722,-1.871 -0.719,-0.316 -1.555,0.007 -1.872,0.723 l -11.234,25.378 c -0.238,0.536 -0.121,1.163 0.293,1.577 0.272,0.271 0.635,0.416 1.003,0.416 0.194,0 0.39,-0.04 0.575,-0.122 l 25.376,-11.234 c 0.55,-0.244 0.86,-0.796 0.834,-1.364 l 0.021,-0.008 -1.664,-11.711 75.106,-74.987 h -4.015 z"
       id="path3746"
       inkscape:connector-curvature="0" /></g></svg>