<?xml version="1.0" encoding="utf-8"?>
<!-- Generator: Adobe Illustrator 22.0.1, SVG Export Plug-In . SVG Version: 6.00 Build 0)  -->
<svg version="1.1" xmlns="http://www.w3.org/2000/svg" xmlns:xlink="http://www.w3.org/1999/xlink" x="0px" y="0px"
	 viewBox="0 0 3200 3200" style="enable-background:new 0 0 3200 3200;" xml:space="preserve">
<style type="text/css">
	.st0{fill:#FFFFFF;}
	.st1{fill:#2000BF;}
	.st2{font-family:'Arial-BoldMT';}
	.st3{font-size:1231.4293px;}
	.st4{font-family:'ArialMT';}
	.st5{font-size:1296px;}
	.st6{font-size:1259.8451px;}
	.st7{letter-spacing:-125.7;}
</style>
<g id="Layer_1">
	<g>
		<g>
			<path class="st0" d="M115.7,1370.9c1.9,0,1.9-3,0-3C113.7,1367.9,113.7,1370.9,115.7,1370.9L115.7,1370.9z"/>
		</g>
	</g>
	<g>
		<g>
			<path class="st0" d="M457.5,937.2c11.7,11.5,16.4,27.3,18.8,43.1c2.8,18.2,3.6,36.9,4.4,55.3c1.7,38.2,1.1,76.5-0.3,114.7
				c-2.8,76.5-9.1,152.9-8.2,229.5c0.5,42.7,3.4,85.4,10.1,127.6c0.3,1.9,3.2,1.1,2.9-0.8c-12.4-77.2-11.2-155.7-7.7-233.6
				c3.5-77.7,9.3-155.6,6.3-233.4c-0.8-19.7-1.6-39.7-4.5-59.2c-2.4-16.6-7.5-33.2-19.7-45.2C458.2,933.8,456.1,935.9,457.5,937.2
				L457.5,937.2z"/>
		</g>
	</g>
</g>
<g id="Layer_2">
	<text transform="matrix(4.262355e-04 1.5786 -1.7525 4.907000e-04 573.6868 61.3427)" class="st1 st2 st3">[</text>
</g>
<g id="Layer_3">
	<text transform="matrix(-1.220000e-03 2 -2 -1.220000e-03 1086.2734 463.8959)" class="st4 st5">&gt;</text>
</g>
<g id="Layer_4">
	<text transform="matrix(1.5431 0 0 1.9 688 2492.7129)"><tspan x="0" y="0" class="st4 st6 st7">|</tspan><tspan x="201.3" y="0" class="st4 st6">|</tspan></text>
</g>
<g id="Layer_5">
	<text transform="matrix(2 0 0 2.42 2450.9141 2995.9583)" class="st4 st5">!</text>
</g>
</svg>
